# Sphere.obj - Bola dengan resolusi sedang
# Generated for Computer Graphics Module B

# Vertices untuk bola (menggunakan spherical coordinates)
# Top vertex
v 0.0 1.0 0.0

# Ring 1 (latitude ~71.57°)
v 0.0 0.707 0.707
v 0.5 0.707 0.5
v 0.707 0.707 0.0
v 0.5 0.707 -0.5
v 0.0 0.707 -0.707
v -0.5 0.707 -0.5
v -0.707 0.707 0.0
v -0.5 0.707 0.5

# Ring 2 (latitude ~45°)
v 0.0 0.5 1.0
v 0.707 0.5 0.707
v 1.0 0.5 0.0
v 0.707 0.5 -0.707
v 0.0 0.5 -1.0
v -0.707 0.5 -0.707
v -1.0 0.5 0.0
v -0.707 0.5 0.707

# Ring 3 (latitude ~18.43°)
v 0.0 0.309 1.0
v 0.707 0.309 0.707
v 1.0 0.309 0.0
v 0.707 0.309 -0.707
v 0.0 0.309 -1.0
v -0.707 0.309 -0.707
v -1.0 0.309 0.0
v -0.707 0.309 0.707

# Equator (latitude 0°)
v 0.0 0.0 1.0
v 0.707 0.0 0.707
v 1.0 0.0 0.0
v 0.707 0.0 -0.707
v 0.0 0.0 -1.0
v -0.707 0.0 -0.707
v -1.0 0.0 0.0
v -0.707 0.0 0.707

# Ring 4 (latitude -18.43°)
v 0.0 -0.309 1.0
v 0.707 -0.309 0.707
v 1.0 -0.309 0.0
v 0.707 -0.309 -0.707
v 0.0 -0.309 -1.0
v -0.707 -0.309 -0.707
v -1.0 -0.309 0.0
v -0.707 -0.309 0.707

# Ring 5 (latitude -45°)
v 0.0 -0.5 1.0
v 0.707 -0.5 0.707
v 1.0 -0.5 0.0
v 0.707 -0.5 -0.707
v 0.0 -0.5 -1.0
v -0.707 -0.5 -0.707
v -1.0 -0.5 0.0
v -0.707 -0.5 0.707

# Ring 6 (latitude -71.57°)
v 0.0 -0.707 0.707
v 0.5 -0.707 0.5
v 0.707 -0.707 0.0
v 0.5 -0.707 -0.5
v 0.0 -0.707 -0.707
v -0.5 -0.707 -0.5
v -0.707 -0.707 0.0
v -0.5 -0.707 0.5

# Bottom vertex
v 0.0 -1.0 0.0

# Vertex normals (sama dengan posisi vertex untuk sphere)
vn 0.0 1.0 0.0

vn 0.0 0.707 0.707
vn 0.5 0.707 0.5
vn 0.707 0.707 0.0
vn 0.5 0.707 -0.5
vn 0.0 0.707 -0.707
vn -0.5 0.707 -0.5
vn -0.707 0.707 0.0
vn -0.5 0.707 0.5

vn 0.0 0.5 1.0
vn 0.707 0.5 0.707
vn 1.0 0.5 0.0
vn 0.707 0.5 -0.707
vn 0.0 0.5 -1.0
vn -0.707 0.5 -0.707
vn -1.0 0.5 0.0
vn -0.707 0.5 0.707

vn 0.0 0.309 1.0
vn 0.707 0.309 0.707
vn 1.0 0.309 0.0
vn 0.707 0.309 -0.707
vn 0.0 0.309 -1.0
vn -0.707 0.309 -0.707
vn -1.0 0.309 0.0
vn -0.707 0.309 0.707

vn 0.0 0.0 1.0
vn 0.707 0.0 0.707
vn 1.0 0.0 0.0
vn 0.707 0.0 -0.707
vn 0.0 0.0 -1.0
vn -0.707 0.0 -0.707
vn -1.0 0.0 0.0
vn -0.707 0.0 0.707

vn 0.0 -0.309 1.0
vn 0.707 -0.309 0.707
vn 1.0 -0.309 0.0
vn 0.707 -0.309 -0.707
vn 0.0 -0.309 -1.0
vn -0.707 -0.309 -0.707
vn -1.0 -0.309 0.0
vn -0.707 -0.309 0.707

vn 0.0 -0.5 1.0
vn 0.707 -0.5 0.707
vn 1.0 -0.5 0.0
vn 0.707 -0.5 -0.707
vn 0.0 -0.5 -1.0
vn -0.707 -0.5 -0.707
vn -1.0 -0.5 0.0
vn -0.707 -0.5 0.707

vn 0.0 -0.707 0.707
vn 0.5 -0.707 0.5
vn 0.707 -0.707 0.0
vn 0.5 -0.707 -0.5
vn 0.0 -0.707 -0.707
vn -0.5 -0.707 -0.5
vn -0.707 -0.707 0.0
vn -0.5 -0.707 0.5

vn 0.0 -1.0 0.0

# Faces (triangles) - Top cap
f 1//1 2//2 3//3
f 1//1 3//3 4//4
f 1//1 4//4 5//5
f 1//1 5//5 6//6
f 1//1 6//6 7//7
f 1//1 7//7 8//8
f 1//1 8//8 9//9
f 1//1 9//9 2//2

# Ring 1 to Ring 2
f 2//2 10//10 11//11
f 2//2 11//11 3//3
f 3//3 11//11 12//12
f 3//3 12//12 4//4
f 4//4 12//12 13//13
f 4//4 13//13 5//5
f 5//5 13//13 14//14
f 5//5 14//14 6//6
f 6//6 14//14 15//15
f 6//6 15//15 7//7
f 7//7 15//15 16//16
f 7//7 16//16 8//8
f 8//8 16//16 17//17
f 8//8 17//17 9//9
f 9//9 17//17 10//10
f 9//9 10//10 2//2

# Ring 2 to Ring 3
f 10//10 18//18 19//19
f 10//10 19//19 11//11
f 11//11 19//19 20//20
f 11//11 20//20 12//12
f 12//12 20//20 21//21
f 12//12 21//21 13//13
f 13//13 21//21 22//22
f 13//13 22//22 14//14
f 14//14 22//22 23//23
f 14//14 23//23 15//15
f 15//15 23//23 24//24
f 15//15 24//24 16//16
f 16//16 24//24 25//25
f 16//16 25//25 17//17
f 17//17 25//25 18//18
f 17//17 18//18 10//10

# Ring 3 to Equator
f 18//18 26//26 27//27
f 18//18 27//27 19//19
f 19//19 27//27 28//28
f 19//19 28//28 20//20
f 20//20 28//28 29//29
f 20//20 29//29 21//21
f 21//21 29//29 30//30
f 21//21 30//30 22//22
f 22//22 30//30 31//31
f 22//22 31//31 23//23
f 23//23 31//31 32//32
f 23//23 32//32 24//24
f 24//24 32//32 33//33
f 24//24 33//33 25//25
f 25//25 33//33 26//26
f 25//25 26//26 18//18

# Equator to Ring 4
f 26//26 34//34 35//35
f 26//26 35//35 27//27
f 27//27 35//35 36//36
f 27//27 36//36 28//28
f 28//28 36//36 37//37
f 28//28 37//37 29//29
f 29//29 37//37 38//38
f 29//29 38//38 30//30
f 30//30 38//38 39//39
f 30//30 39//39 31//31
f 31//31 39//39 40//40
f 31//31 40//40 32//32
f 32//32 40//40 41//41
f 32//32 41//41 33//33
f 33//33 41//41 34//34
f 33//33 34//34 26//26

# Ring 4 to Ring 5
f 34//34 42//42 43//43
f 34//34 43//43 35//35
f 35//35 43//43 44//44
f 35//35 44//44 36//36
f 36//36 44//44 45//45
f 36//36 45//45 37//37
f 37//37 45//45 46//46
f 37//37 46//46 38//38
f 38//38 46//46 47//47
f 38//38 47//47 39//39
f 39//39 47//47 48//48
f 39//39 48//48 40//40
f 40//40 48//48 49//49
f 40//40 49//49 41//41
f 41//41 49//49 42//42
f 41//41 42//42 34//34

# Ring 5 to Ring 6
f 42//42 50//50 51//51
f 42//42 51//51 43//43
f 43//43 51//51 52//52
f 43//43 52//52 44//44
f 44//44 52//52 53//53
f 44//44 53//53 45//45
f 45//45 53//53 54//54
f 45//45 54//54 46//46
f 46//46 54//54 55//55
f 46//46 55//55 47//47
f 47//47 55//55 56//56
f 47//47 56//56 48//48
f 48//48 56//56 57//57
f 48//48 57//57 49//49
f 49//49 57//57 50//50
f 49//49 50//50 42//42

# Bottom cap
f 58//58 51//51 50//50
f 58//58 52//52 51//51
f 58//58 53//53 52//52
f 58//58 54//54 53//53
f 58//58 55//55 54//54
f 58//58 56//56 55//55
f 58//58 57//57 56//56
f 58//58 50//50 57//57