# Rectangular.obj - Persegi panjang (cuboid)
# Generated for Computer Graphics Module B
# Dimensi: 2.0 x 1.0 x 1.5 (width x height x depth)

# Vertices untuk persegi panjang
# Front face (z = 0.75)
v -1.0 -0.5 0.75
v 1.0 -0.5 0.75
v 1.0 0.5 0.75
v -1.0 0.5 0.75

# Back face (z = -0.75)
v -1.0 -0.5 -0.75
v 1.0 -0.5 -0.75
v 1.0 0.5 -0.75
v -1.0 0.5 -0.75

# Vertex normals
# Front face normal
vn 0.0 0.0 1.0
vn 0.0 0.0 1.0
vn 0.0 0.0 1.0
vn 0.0 0.0 1.0

# Back face normal
vn 0.0 0.0 -1.0
vn 0.0 0.0 -1.0
vn 0.0 0.0 -1.0
vn 0.0 0.0 -1.0

# Bottom face normal
vn 0.0 -1.0 0.0
vn 0.0 -1.0 0.0
vn 0.0 -1.0 0.0
vn 0.0 -1.0 0.0

# Top face normal
vn 0.0 1.0 0.0
vn 0.0 1.0 0.0
vn 0.0 1.0 0.0
vn 0.0 1.0 0.0

# Left face normal
vn -1.0 0.0 0.0
vn -1.0 0.0 0.0
vn -1.0 0.0 0.0
vn -1.0 0.0 0.0

# Right face normal
vn 1.0 0.0 0.0
vn 1.0 0.0 0.0
vn 1.0 0.0 0.0
vn 1.0 0.0 0.0

# Faces (quads dengan normals)
# Front face
f 1//1 2//2 3//3 4//4

# Back face
f 8//8 7//7 6//6 5//5

# Bottom face
f 5//9 6//10 2//11 1//12

# Top face
f 4//13 3//14 7//15 8//16

# Left face
f 1//17 4//18 8//19 5//20

# Right face
f 2//21 6//22 7//23 3//24